# xmcd
#
# Track frame offsets:
#	150
#	36400
#	84975
#	123955
#	137885
#	170539
#	205294
#	223261
#	249643
#	268360
#	286637
#	299832
#	316717
#
# Disc length: 4465 seconds
#
# Revision: 1
# Processed by: cddbd v1.4PL0 Copyright (c) Steve Scherf et al.
# Submitted via: audiograbber 1.80
#
DISCID=d1116f0d
DTITLE=Faithless - Best ´99
DYEAR=1900
DGENRE=
TTITLE0=God is a DJ
TTITLE1=Salva Mea
TTITLE2=Insomnia
TTITLE3=Dirty ol´man
TTITLE4=Take the long way home
TTITLE5=Reverence
TTITLE6=Why go
TTITLE7=She´s my baby
TTITLE8=Drifting away
TTITLE9=Postcards
TTITLE10=Baseball cap
TTITLE11=Angeline
TTITLE12=Don´t leave
EXTD=
EXTT0=
EXTT1=
EXTT2=
EXTT3=
EXTT4=
EXTT5=
EXTT6=
EXTT7=
EXTT8=
EXTT9=
EXTT10=
EXTT11=
EXTT12=
PLAYORDER=
